<svg xmlns="http://www.w3.org/2000/svg" width="2000" height="2263" viewBox="0 0 2000 2263" version="1.1"><path d="M 396.268 72.677 L 393.582 78.500 392.870 115 C 391.310 195.012, 383.196 253.429, 358.356 363.500 C 337.013 458.076, 306.443 567.759, 253.003 741.500 C 228.538 821.041, 217.695 858.198, 204.126 909 C 164.298 1058.112, 147.616 1149.613, 138.310 1270 C 136.126 1298.257, 135.823 1370.198, 137.798 1391.500 C 143.651 1454.616, 154.365 1504.532, 174.161 1560.908 C 176.979 1568.934, 179.601 1575.858, 179.988 1576.296 C 180.375 1576.733, 185.433 1573.521, 191.229 1569.158 C 214.796 1551.416, 238.960 1540.293, 271.982 1531.989 C 333.408 1516.542, 394.603 1515.410, 514.500 1527.505 C 577.856 1533.896, 634.313 1538.650, 694 1542.620 C 730.281 1545.033, 782.512 1545.011, 803 1542.573 C 805.475 1542.279, 809.750 1541.816, 812.500 1541.546 C 815.250 1541.275, 819.300 1540.798, 821.500 1540.485 C 823.700 1540.172, 827.075 1539.714, 829 1539.467 C 830.925 1539.220, 834.075 1538.760, 836 1538.445 C 841.345 1537.571, 845.342 1537.017, 847 1536.920 C 847.825 1536.872, 849.175 1536.564, 850 1536.237 C 851.810 1535.518, 853.344 1535.215, 858.215 1534.615 C 860.259 1534.363, 862.810 1533.878, 863.885 1533.536 C 865.914 1532.893, 868.379 1532.356, 873.500 1531.446 C 875.150 1531.152, 878.298 1530.435, 880.496 1529.851 C 882.694 1529.268, 885.169 1528.653, 885.996 1528.484 C 886.823 1528.315, 888.625 1527.742, 890 1527.209 C 891.375 1526.676, 892.844 1526.224, 893.264 1526.205 C 895.884 1526.088, 902.662 1524.655, 903.500 1524.042 C 904.542 1523.279, 912.759 1520.899, 914.500 1520.855 C 915.050 1520.841, 915.950 1520.499, 916.500 1520.095 C 917.050 1519.691, 919.384 1518.767, 921.687 1518.041 L 925.873 1516.722 926.187 1506.859 C 926.359 1501.434, 926.275 1496.937, 926 1496.864 C 925.725 1496.792, 924.150 1496.650, 922.500 1496.547 C 920.850 1496.445, 918.150 1495.999, 916.500 1495.556 C 914.850 1495.113, 912.600 1494.614, 911.500 1494.446 C 910.400 1494.279, 907.925 1493.900, 906 1493.605 C 904.075 1493.311, 901.375 1492.822, 900 1492.520 C 898.625 1492.218, 896.150 1491.768, 894.500 1491.520 C 892.850 1491.272, 890.375 1490.775, 889 1490.415 C 887.625 1490.055, 885.263 1489.721, 883.750 1489.672 C 882.237 1489.624, 881 1489.340, 881 1489.042 C 881 1488.744, 879.987 1488.452, 878.750 1488.393 C 876.393 1488.282, 870.589 1487.361, 865.500 1486.291 C 863.850 1485.944, 861.825 1485.552, 861 1485.420 C 860.175 1485.287, 858.375 1484.891, 857 1484.538 C 855.625 1484.185, 851.800 1483.446, 848.500 1482.894 C 839.747 1481.430, 839.724 1481.426, 837 1480.713 C 835.625 1480.353, 832.925 1479.828, 831 1479.547 C 829.075 1479.266, 826.375 1478.768, 825 1478.439 C 823.625 1478.111, 821.599 1477.705, 820.497 1477.536 C 819.395 1477.368, 816.838 1476.773, 814.814 1476.214 C 812.791 1475.656, 810.928 1475.405, 810.675 1475.658 C 810.422 1475.911, 807.791 1475.414, 804.828 1474.552 C 801.865 1473.691, 797.879 1472.830, 795.970 1472.640 C 794.062 1472.449, 791.375 1472.021, 790 1471.688 C 788.625 1471.354, 785.560 1470.848, 783.188 1470.562 C 780.817 1470.276, 778.567 1469.855, 778.188 1469.628 C 777.810 1469.401, 775.250 1468.927, 772.500 1468.575 C 767.951 1467.994, 763.988 1467.370, 758.500 1466.373 C 755.290 1465.789, 734.981 1463.128, 729.250 1462.539 C 726.362 1462.243, 721.862 1461.771, 719.250 1461.491 C 696.039 1459.004, 680.824 1458.183, 616.500 1455.941 C 506.882 1452.122, 429.668 1454.565, 372.790 1463.650 L 369.079 1464.243 388.565 1405.871 C 442.047 1245.662, 474.727 1137.938, 491.977 1065 C 498.035 1039.384, 511.313 988.321, 525.598 935.708 C 563.506 796.093, 586.646 682.488, 598.460 578 C 606.832 503.953, 608.088 451.190, 602.410 412 C 598.824 387.244, 592.411 362.677, 586.095 349.500 C 583.986 345.100, 581.855 340.154, 581.359 338.510 C 580.263 334.870, 578.099 334.290, 574.994 336.804 C 572.408 338.898, 572.817 335.057, 569.488 388.500 C 564.816 463.496, 554.846 526.199, 535.398 602.906 C 516.029 679.301, 500.052 737.015, 473.501 826.500 C 438.345 944.985, 408.625 1052.976, 384.998 1148.081 C 359.278 1251.607, 342.691 1354.133, 334.234 1461.854 L 333.500 1471.209 324.500 1473.512 C 319.550 1474.778, 311.498 1477.242, 306.608 1478.986 C 299.498 1481.521, 297.549 1481.891, 296.887 1480.829 C 295.373 1478.402, 293 1466.184, 292.997 1460.803 C 292.991 1451.307, 290.007 1425.033, 286.023 1399.405 C 280.216 1362.051, 276.187 1348, 271.281 1348 C 262.282 1348, 256.498 1360.076, 252.602 1387 C 249.877 1405.838, 249.008 1424.835, 249.004 1465.714 L 249 1505.927 237.626 1513.438 C 226.899 1520.522, 222.630 1524.294, 218.904 1529.985 C 217.359 1532.344, 217.221 1531.972, 214.655 1518.462 C 209.049 1488.939, 204.702 1457.035, 201.924 1425 C 201.327 1418.125, 200.593 1395.980, 200.291 1375.789 C 199.715 1337.138, 200.536 1316.411, 204.070 1280.500 C 218.151 1137.376, 248.671 1003.382, 314.653 795 C 343.546 703.751, 369.805 614.272, 387.874 545.500 C 413.370 448.457, 430.002 347.655, 432.961 272.240 C 434.789 225.648, 430.597 174.008, 421.375 129.500 C 417.528 110.933, 410.933 85.930, 408.717 81.512 C 407.616 79.318, 405.952 75.268, 405.018 72.512 C 403.758 68.792, 402.757 67.417, 401.137 67.177 C 399.338 66.912, 398.482 67.879, 396.268 72.677 M 457.803 126.533 C 456.895 128.525, 457.026 131.138, 458.415 138.783 C 462.231 159.784, 463.103 168.354, 463.677 190.500 C 464.594 225.882, 461.688 268.778, 453.955 334 C 442.257 432.672, 421.199 554.471, 396.932 663.816 C 384.343 720.542, 379.363 740.360, 366.733 784 C 354.926 824.797, 344.984 866.355, 336.590 910 C 317.296 1010.312, 312.295 1038.304, 309.526 1061.500 C 308.672 1068.650, 307.532 1076.525, 306.992 1079 C 306.452 1081.475, 305.724 1089.800, 305.374 1097.500 C 304.849 1109.048, 305.014 1112.157, 306.318 1115.250 C 307.715 1118.566, 308.302 1119, 311.393 1119 C 316.152 1119, 319.475 1114.864, 328.774 1097.370 C 348.069 1061.071, 407.944 906.811, 446.332 794.500 C 479.136 698.524, 510.863 589.693, 520.393 540.453 C 537.917 449.908, 538.097 344.787, 520.874 259.500 C 509.236 201.867, 488.244 151.629, 465.868 127.859 C 461.639 123.367, 459.412 123.001, 457.803 126.533 M 391.500 1556.666 C 342.511 1559.021, 290.248 1569.980, 241 1588.226 C 191.620 1606.521, 160.187 1628.843, 135.705 1663 C 129.812 1671.221, 123.037 1684.687, 123.012 1688.227 C 123.005 1689.177, 124.064 1690.651, 125.365 1691.504 C 128.154 1693.331, 131.021 1692.536, 135.627 1688.661 C 143.998 1681.617, 167.272 1669.064, 185.239 1661.903 C 215.796 1649.724, 263.940 1640.549, 316.285 1636.930 C 341.515 1635.186, 413.937 1636.247, 446 1638.832 C 511.212 1644.088, 548.029 1645.455, 586.500 1644.050 C 629.967 1642.462, 652.185 1640.490, 683.500 1635.440 C 701.522 1632.534, 705.527 1631.473, 708.065 1628.935 C 713.257 1623.743, 706.895 1614.446, 693.204 1607.218 C 679.888 1600.188, 601.434 1580.415, 544 1569.613 C 485.609 1558.632, 436.809 1554.489, 391.500 1556.666 M 923.500 1560.216 C 922.400 1560.851, 920.901 1561.966, 920.169 1562.694 C 919.438 1563.423, 918.476 1563.794, 918.033 1563.520 C 917.589 1563.246, 916.671 1563.692, 915.991 1564.511 C 915.311 1565.330, 914.356 1566, 913.867 1566 C 913.379 1566, 910.780 1567.546, 908.092 1569.435 C 905.404 1571.325, 902.933 1572.600, 902.602 1572.269 C 902.271 1571.938, 902 1572.218, 902 1572.892 C 902 1573.566, 901.597 1573.869, 901.105 1573.565 C 900.612 1573.260, 899.941 1573.712, 899.612 1574.569 C 899.283 1575.426, 898.612 1575.878, 898.120 1575.574 C 897.629 1575.271, 896.675 1575.687, 896 1576.500 C 895.325 1577.313, 894.443 1577.773, 894.038 1577.524 C 893.634 1577.274, 892.383 1577.927, 891.258 1578.974 C 890.133 1580.022, 888.940 1580.607, 888.606 1580.273 C 888.273 1579.940, 888 1580.267, 888 1581 C 888 1581.733, 887.718 1582.051, 887.373 1581.707 C 886.773 1581.107, 881.040 1583.597, 880 1584.910 C 879.398 1585.670, 874.857 1587.709, 873.612 1587.779 C 873.123 1587.807, 872.448 1588.273, 872.112 1588.815 C 871.775 1589.357, 869.025 1591.016, 866 1592.502 C 855.149 1597.831, 852.962 1599.215, 848.410 1603.640 C 844.515 1607.425, 843.889 1608.549, 844.414 1610.814 C 844.756 1612.291, 845.178 1614.175, 845.352 1615 C 845.685 1616.574, 850.096 1619.136, 853.500 1619.731 C 859.420 1620.767, 877.337 1620.048, 884 1618.507 C 886.253 1617.986, 887.691 1617.715, 894.500 1616.527 C 896.581 1616.164, 904.032 1614.359, 907.500 1613.378 C 908.600 1613.067, 910.288 1612.826, 911.250 1612.844 C 912.212 1612.861, 913 1612.406, 913 1611.831 C 913 1611.256, 913.675 1611.045, 914.500 1611.362 C 915.325 1611.678, 916 1611.586, 916 1611.158 C 916 1610.729, 918.250 1609.801, 921 1609.097 L 926 1607.815 926 1583.408 C 926 1569.983, 925.888 1559.014, 925.750 1559.030 C 925.612 1559.047, 924.600 1559.580, 923.500 1560.216 M 924.188 1646.029 C 923.148 1647.145, 921.220 1648.265, 919.902 1648.519 C 918.585 1648.773, 917.355 1649.435, 917.170 1649.990 C 916.985 1650.546, 915.896 1651, 914.750 1651 C 913.604 1651, 912.965 1651.298, 913.329 1651.662 C 914.016 1652.350, 906.449 1656.203, 904.250 1656.286 C 903.563 1656.312, 903 1656.598, 903 1656.923 C 903 1657.247, 901.538 1658.097, 899.750 1658.812 C 897.962 1659.527, 894.960 1660.875, 893.078 1661.806 C 891.196 1662.738, 889.396 1663.432, 889.078 1663.349 C 888.760 1663.265, 887.600 1663.698, 886.500 1664.311 C 885.400 1664.924, 884.163 1665.329, 883.750 1665.212 C 883.337 1665.096, 883 1665.477, 883 1666.059 C 883 1666.641, 882.581 1666.859, 882.069 1666.543 C 881.557 1666.226, 880.851 1666.432, 880.500 1667 C 880.149 1667.568, 879.443 1667.774, 878.931 1667.457 C 878.419 1667.141, 878 1667.359, 878 1667.941 C 878 1668.523, 877.663 1668.929, 877.250 1668.841 C 876.387 1668.659, 873.291 1669.724, 870.764 1671.073 C 869.809 1671.583, 868.527 1672, 867.915 1672 C 866.830 1672, 861.249 1674.246, 857.764 1676.084 C 856.809 1676.588, 855.234 1677.003, 854.264 1677.006 C 853.294 1677.010, 851.182 1677.700, 849.571 1678.540 C 847.960 1679.380, 845.935 1680.178, 845.071 1680.313 C 844.207 1680.447, 842.938 1680.909, 842.250 1681.338 C 841.563 1681.767, 841 1681.891, 841 1681.613 C 841 1681.335, 838.413 1682.020, 835.250 1683.135 C 832.087 1684.250, 828.150 1685.388, 826.500 1685.664 C 824.850 1685.940, 823.072 1686.578, 822.550 1687.083 C 822.027 1687.587, 820.430 1688, 819 1688 C 817.570 1688, 815.860 1688.540, 815.200 1689.200 C 814.540 1689.860, 814 1690.130, 814 1689.800 C 814 1689.470, 810.737 1690.072, 806.750 1691.139 C 798.571 1693.327, 799.111 1693.207, 782.052 1696.628 C 775.149 1698.013, 767.925 1699.318, 766 1699.527 C 764.075 1699.737, 759.125 1700.400, 755 1701.001 C 750.875 1701.602, 744.800 1702.339, 741.500 1702.638 C 738.200 1702.937, 732.125 1703.552, 728 1704.006 C 716.601 1705.259, 665.904 1704.395, 644.500 1702.584 C 606.336 1699.354, 573.911 1694.767, 530 1686.384 C 407.379 1662.975, 332.851 1655.771, 268.500 1661.107 C 197.943 1666.958, 156.524 1684.276, 110 1727.380 C 104.225 1732.730, 99.338 1737.568, 99.141 1738.131 C 98.718 1739.335, 100.833 1739.071, 128.500 1734.460 C 178.810 1726.075, 229.973 1722.006, 285 1722.015 C 313.807 1722.020, 339.679 1723.108, 391 1726.474 C 548.137 1736.779, 681.390 1740.024, 759 1735.435 C 763.675 1735.159, 771.775 1734.728, 777 1734.478 C 782.225 1734.228, 788.750 1733.743, 791.500 1733.400 C 794.250 1733.057, 797.175 1732.784, 798 1732.794 C 798.825 1732.803, 802.425 1732.368, 806 1731.826 C 809.575 1731.285, 813.850 1730.679, 815.500 1730.479 C 817.150 1730.279, 819.625 1729.828, 821 1729.477 C 822.375 1729.126, 824.175 1728.826, 825 1728.809 C 826.320 1728.782, 831.314 1727.807, 837.500 1726.369 C 838.600 1726.113, 840.724 1725.723, 842.220 1725.503 C 843.716 1725.283, 845.835 1724.623, 846.929 1724.038 C 848.024 1723.452, 849.275 1723.032, 849.709 1723.105 C 850.144 1723.177, 850.725 1723.149, 851 1723.042 C 851.275 1722.935, 852.175 1722.683, 853 1722.482 C 853.825 1722.281, 855.625 1721.839, 857 1721.500 C 858.375 1721.161, 860.049 1720.772, 860.721 1720.637 C 861.393 1720.502, 862.255 1720.078, 862.638 1719.696 C 863.020 1719.313, 864.518 1719, 865.967 1719 C 867.415 1719, 869.037 1718.563, 869.571 1718.029 C 870.106 1717.494, 871.433 1716.919, 872.521 1716.750 C 873.610 1716.581, 875.063 1716.091, 875.750 1715.662 C 876.438 1715.233, 877 1715.159, 877 1715.498 C 877 1715.836, 878 1715.413, 879.223 1714.557 C 880.445 1713.701, 882.395 1713, 883.556 1713 C 884.717 1713, 885.978 1712.688, 886.359 1712.308 C 886.740 1711.927, 887.871 1711.490, 888.874 1711.337 C 889.876 1711.184, 893.577 1709.696, 897.098 1708.030 C 900.619 1706.364, 904.025 1705.001, 904.667 1705.001 C 905.308 1705, 905.983 1704.662, 906.167 1704.250 C 906.350 1703.838, 910.888 1701.333, 916.250 1698.685 L 926 1693.869 926 1669.518 C 926 1650.973, 926.298 1645.046, 927.250 1644.662 C 928.186 1644.285, 928.196 1644.138, 927.289 1644.079 C 926.623 1644.036, 925.227 1644.913, 924.188 1646.029" stroke="none" fill="#6ccdf4" fill-rule="evenodd"/><path d="M 1391.289 57.478 C 1311.929 65.717, 1253.943 91.789, 1202.782 142.234 C 1181.762 162.960, 1159.195 191.930, 1146.486 214.500 C 1134.051 236.586, 1133.488 237.687, 1124.510 257.500 C 1117.396 273.199, 1106 304.601, 1106 308.502 C 1106 313.174, 1111.158 314.421, 1116.643 311.076 C 1120.438 308.762, 1121.001 307.982, 1130.801 291.442 C 1181.375 206.085, 1265.491 149.043, 1365.013 132.614 C 1389.050 128.645, 1403.113 127.676, 1435 127.787 C 1489.623 127.977, 1536.881 133.064, 1600.015 145.547 C 1664.178 158.234, 1708.757 163.191, 1760.500 163.391 C 1790.762 163.509, 1795.652 163.024, 1826.433 156.859 C 1886.051 144.917, 1934.807 120.462, 1946.510 96.632 C 1950.067 89.390, 1952.621 79.061, 1951.548 76.264 C 1950.652 73.929, 1940.688 75.178, 1934.500 78.400 C 1925.434 83.122, 1882.672 92.999, 1856 96.533 C 1805.753 103.189, 1711.364 96.023, 1637 79.906 C 1579.749 67.498, 1549.409 62.596, 1504 58.417 C 1479.700 56.181, 1409.422 55.595, 1391.289 57.478 M 1920.049 148.679 C 1916.453 151.197, 1883.983 166.119, 1872 170.759 C 1850.191 179.205, 1827.434 185.849, 1808 189.445 C 1791.459 192.505, 1771.041 194.030, 1732 195.123 C 1686.639 196.392, 1656.791 195.848, 1618.500 193.056 C 1561.506 188.899, 1504.304 187.217, 1477.500 188.908 C 1459.925 190.017, 1435.999 194.022, 1429.334 196.971 C 1421.392 200.483, 1422.728 207.610, 1432.813 215.530 C 1449.700 228.793, 1513.500 252.399, 1571.941 267.009 C 1633.522 282.403, 1691.201 289.978, 1724.792 287.083 C 1759.800 284.066, 1800.574 271.819, 1836.585 253.504 C 1861.087 241.043, 1878.316 228.793, 1895.579 211.560 C 1912.649 194.519, 1921.691 179.555, 1926.591 160.241 C 1927.916 155.017, 1929 150.423, 1929 150.032 C 1929 149.319, 1924.546 147, 1923.175 147 C 1922.774 147, 1921.367 147.755, 1920.049 148.679 M 1268 208.623 C 1243.843 212.941, 1214.699 226.627, 1192 244.312 C 1154.099 273.841, 1123.205 321.532, 1118.072 358.434 C 1116.880 367.011, 1116.683 375.011, 1117.607 377.418 C 1118.773 380.457, 1125 378.716, 1125 375.352 C 1125 374.665, 1126.180 372.842, 1127.623 371.302 C 1129.848 368.926, 1149.681 345.955, 1156.386 337.988 C 1182.278 307.224, 1193.252 297.216, 1217.265 282.465 C 1254.773 259.425, 1281.902 240.145, 1295.250 227.045 C 1302.029 220.392, 1303 218.995, 1303 215.894 C 1303 213.377, 1302.252 211.645, 1300.422 209.924 C 1298.061 207.703, 1296.949 207.483, 1287.172 207.302 C 1281.087 207.189, 1272.846 207.757, 1268 208.623 M 1341.500 286.456 C 1312.772 289.214, 1287.225 293.385, 1258.500 300.006 C 1228.592 306.900, 1220 310.830, 1220 317.617 C 1220 322.923, 1221.453 324.702, 1228.789 328.371 C 1239.973 333.966, 1293.680 347.544, 1345.972 357.995 C 1417.771 372.345, 1509.858 384.374, 1572.750 387.616 L 1586 388.299 1585.998 390.900 C 1585.997 392.330, 1584.900 400.925, 1583.560 410 C 1571.187 493.818, 1552.389 571.140, 1521.809 664 C 1472.258 814.464, 1412.244 962.164, 1321.489 1157 C 1283.057 1239.506, 1256.312 1299.259, 1231.520 1358 C 1210.357 1408.143, 1194.841 1443.812, 1174.968 1488 C 1141.141 1563.216, 1130.803 1588.854, 1112.067 1644 C 1088.356 1713.786, 1072.151 1780.888, 1062.559 1849 C 1060.388 1864.415, 1059.597 1870.897, 1057.556 1890 C 1053.542 1927.580, 1053.550 1989.487, 1057.575 2035 C 1058.378 2044.075, 1059.478 2056.848, 1060.019 2063.385 C 1061.018 2075.463, 1063.433 2087.743, 1069.576 2112 C 1079.776 2152.278, 1082.155 2159.202, 1086.469 2161.168 C 1088.308 2162.006, 1089.364 2162.036, 1090.126 2161.274 C 1091.868 2159.532, 1092.807 2146.941, 1092.941 2123.500 C 1093.407 2042.484, 1101.647 1972.163, 1122 1875.500 C 1125.479 1858.978, 1135.849 1817.873, 1142.182 1795.500 C 1184.520 1645.939, 1243.513 1510.286, 1380.284 1248 C 1426.279 1159.795, 1452.912 1102.319, 1485.008 1022 C 1521.756 930.039, 1554.575 827.750, 1582.064 719.500 C 1605.617 626.752, 1623.210 526.067, 1634.486 419.500 C 1635.883 406.300, 1637.252 394.104, 1637.530 392.397 L 1638.035 389.295 1652.768 388.584 C 1660.870 388.193, 1669.347 387.525, 1671.604 387.098 L 1675.708 386.322 1676.367 403.911 C 1677.041 421.877, 1675.837 466.360, 1673.997 491.500 C 1663.929 629.036, 1631.049 784.863, 1573.983 965.500 C 1558.436 1014.711, 1545.397 1044.740, 1433.519 1289 C 1387.946 1388.497, 1368.719 1433.213, 1362.572 1454 C 1360.031 1462.592, 1359.467 1472.811, 1361.294 1477.172 C 1365.017 1486.058, 1371.685 1485.582, 1381.325 1475.741 C 1396.103 1460.657, 1465.731 1349.390, 1513.203 1265 C 1599.040 1112.405, 1660.138 970, 1699.407 831 C 1724.195 743.260, 1738.024 667.936, 1742.094 598.500 C 1743.407 576.095, 1742.774 516.075, 1741.045 499 C 1734.888 438.198, 1731.589 411.564, 1728.042 394.026 C 1726.432 386.065, 1725.201 379.480, 1725.307 379.392 C 1725.413 379.304, 1731.575 377.204, 1739 374.726 C 1763.380 366.588, 1785.261 356.334, 1801.970 345.216 C 1812.524 338.193, 1832.617 318.972, 1835.124 313.500 C 1837.493 308.329, 1837.597 302.166, 1835.330 301.296 C 1834.411 300.944, 1830.249 301.843, 1826.080 303.294 C 1816.698 306.560, 1806.348 309.130, 1789.500 312.378 C 1761.219 317.830, 1753.778 318.460, 1718.500 318.393 C 1663.002 318.288, 1617.264 313.689, 1556.500 302.105 C 1515.455 294.280, 1486.809 290.263, 1448.500 286.961 C 1427.963 285.190, 1358.114 284.861, 1341.500 286.456 M 1785.163 471.750 C 1784.664 472.712, 1783.998 494.200, 1783.681 519.500 C 1782.804 589.702, 1779.006 632.966, 1767.880 699.500 C 1750.319 804.506, 1723.375 902.341, 1671.423 1049.738 C 1638.614 1142.824, 1634.318 1153.728, 1613.807 1196 C 1588.015 1249.156, 1490.382 1437.290, 1427.503 1555 C 1371.344 1660.131, 1350.604 1699.820, 1287.548 1822.820 C 1234.181 1926.921, 1227 1942.316, 1227 1952.625 C 1227 1962.687, 1231.552 1963.833, 1239.404 1955.750 C 1255.785 1938.884, 1311.049 1867.544, 1351.147 1811.500 C 1509.556 1590.094, 1634.895 1357.134, 1723.999 1118.500 C 1766.672 1004.214, 1797.444 889.800, 1811.945 791.500 C 1823.378 714.002, 1826.695 630.876, 1820.106 587 C 1812.252 534.700, 1798.622 479.469, 1791.915 472.761 C 1788.740 469.586, 1786.462 469.245, 1785.163 471.750 M 1045.521 1454.796 C 1035.255 1468.620, 1018.104 1486.393, 1002.383 1499.500 C 994.623 1505.969, 986.078 1513.793, 977.064 1522.681 C 972.423 1527.257, 968.299 1531, 967.897 1531 C 967.495 1531, 966.196 1532.237, 965.009 1533.750 C 963.823 1535.263, 963.205 1535.825, 963.638 1535 C 964.070 1534.175, 962.641 1534.889, 960.462 1536.587 C 958.283 1538.284, 955.062 1540.504, 953.304 1541.520 C 951.547 1542.536, 950.379 1543.804, 950.709 1544.338 C 951.039 1544.872, 950.858 1545.030, 950.306 1544.689 C 949.754 1544.348, 948.233 1545.066, 946.925 1546.285 C 945.617 1547.503, 944.536 1548.311, 944.523 1548.080 C 944.511 1547.848, 942.475 1548.953, 940 1550.533 C 937.525 1552.114, 934.837 1553.516, 934.027 1553.648 C 933.217 1553.780, 932.091 1554.523, 931.524 1555.299 C 930.956 1556.074, 929.482 1557.030, 928.246 1557.422 L 926 1558.135 926 1583.135 L 926 1608.135 928.250 1607.435 C 929.487 1607.050, 930.651 1606.342, 930.835 1605.862 C 931.020 1605.381, 931.586 1605.244, 932.093 1605.558 C 932.600 1605.871, 933.723 1605.420, 934.588 1604.555 C 935.453 1603.689, 936.544 1603.218, 937.012 1603.507 C 937.479 1603.796, 938.149 1603.568, 938.500 1603 C 938.851 1602.432, 939.557 1602.226, 940.069 1602.543 C 940.581 1602.859, 941 1602.615, 941 1602 C 941 1601.385, 941.470 1601.172, 942.044 1601.527 C 942.618 1601.882, 943.630 1601.745, 944.294 1601.224 C 944.957 1600.702, 946.706 1599.988, 948.180 1599.636 C 949.654 1599.285, 951.454 1598.435, 952.180 1597.748 C 953.838 1596.181, 962.332 1592, 963.860 1592 C 964.487 1592, 965 1591.550, 965 1591 C 965 1590.450, 965.613 1590, 966.363 1590 C 968.509 1590, 984.138 1579.472, 983.274 1578.608 C 982.848 1578.182, 983.010 1577.983, 983.634 1578.167 C 986.910 1579.130, 1013.198 1555.579, 1021.771 1544 C 1025.426 1539.064, 1032.214 1526.338, 1037.774 1514 C 1054.271 1477.388, 1058.199 1467.023, 1058.266 1459.925 C 1058.329 1453.368, 1055.726 1447.974, 1052.534 1448.046 C 1051.214 1448.075, 1048.754 1450.443, 1045.521 1454.796 M 926.524 1497.810 C 926.236 1498.098, 926 1502.485, 926 1507.558 C 926 1516.675, 925.969 1516.791, 923.382 1517.440 C 921.942 1517.802, 921 1518.333, 921.288 1518.621 C 921.576 1518.909, 924.441 1517.908, 927.656 1516.395 C 930.870 1514.883, 934.063 1513.745, 934.750 1513.867 C 935.438 1513.988, 936 1513.591, 936 1512.985 C 936 1512.378, 936.450 1512.160, 937 1512.500 C 937.550 1512.840, 938 1512.615, 938 1512 C 938 1511.385, 938.450 1511.160, 939 1511.500 C 939.550 1511.840, 940 1511.615, 940 1511 C 940 1510.385, 940.451 1510.161, 941.002 1510.501 C 941.553 1510.842, 942.444 1509.963, 942.982 1508.548 C 943.743 1506.547, 943.576 1505.519, 942.230 1503.916 C 940.244 1501.553, 934.221 1498.746, 932.894 1499.566 C 932.402 1499.869, 932 1499.694, 932 1499.176 C 932 1498.135, 927.356 1496.977, 926.524 1497.810 M 1064.410 1513.765 C 1063.810 1514.169, 1060.246 1518.775, 1056.489 1524 C 1038.146 1549.512, 1015.087 1575.541, 994.229 1594.278 C 987.358 1600.450, 979.960 1607.188, 977.787 1609.250 C 975.614 1611.313, 973.536 1613.002, 973.168 1613.005 C 972.801 1613.007, 970.787 1614.582, 968.694 1616.505 C 966.601 1618.427, 964.731 1620, 964.537 1620 C 964.344 1620, 961.107 1622.024, 957.343 1624.498 C 953.579 1626.972, 950.950 1629, 951.500 1629.004 C 952.420 1629.012, 950.617 1630.113, 943.987 1633.592 C 942.604 1634.317, 940.515 1635.803, 939.343 1636.895 C 938.172 1637.986, 937.004 1638.671, 936.749 1638.416 C 936.494 1638.160, 935.716 1638.638, 935.020 1639.476 C 934.324 1640.314, 933.158 1641, 932.429 1641 C 931.700 1641, 929.971 1642.050, 928.586 1643.332 L 926.070 1645.665 925.785 1670.235 C 925.517 1693.374, 925.602 1694.750, 927.250 1693.867 C 928.212 1693.352, 929 1692.469, 929 1691.906 C 929 1691.343, 929.450 1691.160, 930 1691.500 C 930.550 1691.840, 931 1691.566, 931 1690.892 C 931 1690.218, 931.293 1689.960, 931.651 1690.318 C 932.009 1690.676, 932.943 1690.188, 933.725 1689.234 C 934.675 1688.077, 934.933 1687.999, 934.500 1689 C 934.143 1689.825, 934.560 1689.626, 935.426 1688.559 C 936.292 1687.491, 937 1687.013, 937 1687.496 C 937 1687.979, 938.420 1687.052, 940.155 1685.437 C 941.890 1683.822, 942.966 1683.099, 942.546 1683.830 C 942.126 1684.562, 943.369 1684.121, 945.308 1682.850 C 947.247 1681.579, 948.619 1680.193, 948.358 1679.770 C 948.096 1679.346, 948.359 1678.944, 948.941 1678.875 C 949.523 1678.806, 950.476 1678.694, 951.057 1678.625 C 951.639 1678.556, 953.028 1677.375, 954.144 1676 C 955.260 1674.625, 955.875 1674.175, 955.511 1675 C 955.146 1675.825, 955.726 1675.507, 956.800 1674.293 C 957.873 1673.078, 958.981 1672.315, 959.262 1672.595 C 959.542 1672.876, 960.676 1671.957, 961.780 1670.553 C 962.884 1669.149, 964.216 1668, 964.740 1668 C 968.445 1668, 999.693 1637.550, 1012.091 1621.856 C 1020.905 1610.700, 1029 1599.608, 1029 1598.688 C 1029 1598.390, 1031.170 1594.851, 1033.821 1590.823 C 1040.844 1580.157, 1048.129 1566.882, 1056.988 1548.611 C 1065.798 1530.439, 1066.987 1526.893, 1066.994 1518.750 C 1067 1513.101, 1066.584 1512.300, 1064.410 1513.765 M 1219.910 1717.371 C 1209.542 1721.077, 1199.646 1733.998, 1186.900 1760.473 C 1162.965 1810.184, 1141.053 1887.575, 1128 1968.500 C 1120.038 2017.858, 1117.339 2071.319, 1121.365 2099.933 C 1127.361 2142.557, 1139.303 2197.736, 1143.886 2204 C 1146.383 2207.412, 1150.651 2207.348, 1153.255 2203.860 C 1155.371 2201.026, 1155.329 2201.340, 1159.005 2160.500 C 1165.451 2088.870, 1171.098 2047.947, 1181.016 2001 C 1183.165 1990.825, 1186.276 1975.468, 1187.928 1966.872 C 1189.580 1958.277, 1194.744 1935.102, 1199.404 1915.372 C 1219.996 1828.188, 1234.566 1756.817, 1236.542 1733.456 L 1237.222 1725.412 1232.648 1720.706 C 1227.747 1715.663, 1225.981 1715.201, 1219.910 1717.371" stroke="none" fill="#6579f4" fill-rule="evenodd"/></svg>